<svg xmlns="http://www.w3.org/2000/svg" width="36" height="30" viewBox="0 0 36 30" fill="none">
<path d="M29.3452 2.16497V8.98997L30.1069 8.22826H7.0916C6.28799 8.22826 5.51484 8.60911 5.11875 9.32894C4.85215 9.80882 4.84072 10.3077 4.84072 10.8295V21.0861L5.60244 20.3243H2.17471C2.16328 20.3243 2.01475 20.3243 2.01475 20.3167L2.11758 20.3282C2.0833 20.3205 2.05283 20.3129 2.01855 20.3053C1.98809 20.2977 1.95381 20.2863 1.92334 20.2748C1.84717 20.2444 1.8624 20.252 1.96523 20.2977C1.96523 20.3015 1.84336 20.2329 1.83574 20.2291C1.67959 20.1377 1.83574 20.2329 1.82812 20.2367C1.82051 20.2444 1.61484 20.0387 1.62246 20.0311C1.6415 20.012 1.71387 20.172 1.65674 20.0654C1.63389 20.0235 1.60723 19.9778 1.58438 19.9359C1.50059 19.7911 1.62627 20.0958 1.58438 19.9359C1.58057 19.9206 1.52725 19.7416 1.53486 19.7416L1.54629 19.8445C1.54248 19.8102 1.53867 19.7759 1.53867 19.7416C1.53486 19.6769 1.53867 19.7074 1.53867 19.6883V19.6426C1.53105 18.3248 1.53867 17.0033 1.53867 15.6855V2.11546C1.53867 2.09642 1.54248 2.08119 1.54248 2.06214C1.5501 1.97835 1.5501 1.99359 1.53486 2.11165C1.53105 2.11165 1.58057 1.93265 1.58438 1.91742C1.50059 2.05833 1.62627 1.75365 1.58438 1.91742C1.61104 1.87552 1.63389 1.83363 1.65674 1.78792C1.73672 1.6432 1.53867 1.90599 1.65674 1.78411C1.69102 1.74984 1.72148 1.71175 1.75957 1.67747C1.88906 1.5556 1.75957 1.67747 1.75576 1.67367C1.75195 1.66986 1.87002 1.6013 1.88145 1.59369C2.04141 1.50609 1.87764 1.58988 1.87764 1.58607C1.87764 1.57845 1.99951 1.54417 2.02236 1.54036C2.0376 1.53656 2.05664 1.53275 2.07187 1.52894C2.15566 1.5137 2.13662 1.5137 2.01855 1.53275C2.01855 1.52513 2.16328 1.52513 2.17471 1.52513H26.1079C26.9763 1.52513 27.8446 1.5137 28.713 1.52513C28.732 1.52513 28.8729 1.52132 28.8729 1.53275C28.8768 1.55179 28.6901 1.48324 28.8463 1.53656C28.8844 1.54798 28.9263 1.55941 28.9682 1.57083C28.8272 1.48704 29.1319 1.61273 28.9682 1.57083C29.0101 1.59749 29.052 1.62035 29.0977 1.6432C29.2424 1.72318 28.9796 1.52513 29.1015 1.6432C29.1357 1.67747 29.1738 1.70794 29.2081 1.74603C29.33 1.87552 29.2081 1.74603 29.2119 1.74222C29.2157 1.73841 29.2843 1.85648 29.2919 1.8679C29.3795 2.02786 29.2957 1.8641 29.2995 1.8641C29.3071 1.8641 29.3414 1.9974 29.3452 2.00882C29.349 2.02406 29.3528 2.0431 29.3566 2.05833C29.3719 2.14212 29.3719 2.12308 29.3528 2.00501C29.3452 2.00882 29.3452 2.15355 29.3452 2.16497C29.3528 2.56488 29.6918 2.94574 30.1069 2.92669C30.5145 2.90765 30.8763 2.59154 30.8687 2.16497C30.8458 0.976693 29.8975 0.0207357 28.7054 0.00169271H2.95166C2.68887 0.00169271 2.42988 -0.00211589 2.16709 0.00169271C1.21875 0.0169271 0.40752 0.614877 0.102832 1.5099C0.0114258 1.77269 0 2.05072 0 2.32493V19.6731C0.0114258 20.6062 0.586523 21.406 1.45869 21.7259C1.89668 21.8859 2.38799 21.844 2.84502 21.844H5.59482C6.00615 21.844 6.35654 21.4936 6.35654 21.0823V13.6212C6.35654 12.5662 6.35273 11.5151 6.35654 10.4601V10.3611C6.35654 10.3268 6.36035 10.2925 6.36416 10.2582C6.36797 10.1554 6.32227 10.403 6.36035 10.3077C6.3832 10.2506 6.40225 10.1744 6.41367 10.1135C6.43272 10.0183 6.34131 10.2392 6.39463 10.1592C6.41748 10.1249 6.43272 10.0868 6.45176 10.0526C6.44795 10.0602 6.50508 9.96878 6.50508 9.96878C6.52031 9.9764 6.39463 10.0907 6.47461 10.0069L6.61172 9.86976C6.71455 9.77074 6.57744 9.90404 6.57363 9.90023C6.57363 9.90023 6.646 9.85453 6.65742 9.84691C6.68408 9.83167 6.71455 9.81644 6.74502 9.7974C6.59268 9.83929 6.88213 9.71742 6.74502 9.7974C6.75645 9.79359 6.93926 9.74027 6.93926 9.74788C6.93926 9.75931 6.7374 9.75931 6.88975 9.7555C6.92402 9.7555 6.9583 9.75169 6.99258 9.75169H7.0002C7.14873 9.74788 7.29727 9.75169 7.4458 9.75169H30.1031C30.5145 9.75169 30.8648 9.4013 30.8648 8.98997V2.16497C30.8648 1.76507 30.5145 1.38421 30.1031 1.40326C29.6956 1.4223 29.3452 1.73841 29.3452 2.16497Z" fill="#C1FD35"/>
<path d="M0.765334 6.22494H28.9147C29.2955 6.22494 29.6802 6.23256 30.061 6.22494H30.1105C30.5105 6.22494 30.8913 5.87455 30.8723 5.46322C30.8532 5.0519 30.5371 4.70151 30.1105 4.70151H1.96123C1.58037 4.70151 1.1957 4.69389 0.814845 4.70151H0.765334C0.365431 4.70151 -0.0154279 5.0519 0.00361502 5.46322C0.022658 5.87836 0.338771 6.22494 0.765334 6.22494ZM34.1819 10.3915V27.1455C34.1819 27.1646 34.1819 27.3055 34.1743 27.3093C34.1591 27.3131 34.22 27.1113 34.1781 27.256C34.1629 27.3017 34.1515 27.3512 34.1362 27.4007C34.0943 27.5531 34.2048 27.3055 34.1477 27.3779C34.1172 27.4198 34.0867 27.4807 34.0639 27.5264C33.9877 27.6635 34.1553 27.4464 34.0791 27.5112C34.0486 27.5378 34.0258 27.5721 33.9953 27.6026C33.9877 27.6102 33.8925 27.7054 33.8849 27.7016C33.8658 27.6826 34.0258 27.6102 33.9191 27.6673C33.8772 27.6902 33.8315 27.7168 33.7897 27.7397C33.6487 27.8235 33.9496 27.6978 33.7897 27.7397C33.7592 27.7473 33.7249 27.7587 33.6944 27.7702C33.6602 27.7778 33.6297 27.7854 33.5954 27.793C33.7135 27.7778 33.7287 27.7778 33.6449 27.7854C32.9708 27.793 32.2967 27.7892 31.6226 27.7892H9.04141C8.35967 27.7892 7.67793 27.8006 7 27.7892H6.94668C6.92764 27.7892 6.9124 27.7854 6.89336 27.7854C6.80957 27.7778 6.82481 27.7778 6.94287 27.793C6.94287 27.7968 6.80576 27.7587 6.79434 27.7587C6.78291 27.7549 6.69912 27.7283 6.69912 27.7283C6.69912 27.7245 6.85908 27.8082 6.70293 27.7206C6.67627 27.7054 6.6458 27.6864 6.61914 27.6711C6.55059 27.6254 6.56582 27.6369 6.65342 27.7054C6.62676 27.6864 6.60391 27.6635 6.58106 27.6407C6.55059 27.614 6.52393 27.5835 6.49727 27.5531C6.38682 27.4426 6.52393 27.5645 6.50869 27.5721C6.50108 27.5759 6.38301 27.3626 6.38682 27.3588C6.39444 27.355 6.44395 27.5302 6.39444 27.355C6.39063 27.3436 6.35635 27.2065 6.36016 27.2065C6.37158 27.2065 6.37158 27.4083 6.36778 27.256C6.36778 27.2141 6.36397 27.1951 6.36397 27.1494V13.4727C6.36397 12.4482 6.34873 11.4199 6.36397 10.3954V10.3915C6.36397 10.3725 6.36016 10.422 6.36397 10.3382C6.36397 10.3192 6.36778 10.3039 6.36778 10.2849C6.37539 10.2011 6.37539 10.2163 6.36016 10.3344C6.36397 10.3344 6.40967 10.0907 6.42871 10.0945C6.43252 10.0945 6.34873 10.2544 6.43633 10.0983C6.44014 10.0945 6.50869 9.9726 6.51631 9.9726C6.52012 9.97641 6.39824 10.1059 6.52012 9.97641C6.54678 9.94594 6.57725 9.91928 6.60772 9.89262C6.71817 9.78217 6.59629 9.91928 6.58867 9.90404C6.58487 9.90024 6.70293 9.83168 6.71436 9.82406C6.72578 9.81645 6.80196 9.77836 6.80196 9.77836C6.80576 9.78598 6.63057 9.83549 6.80576 9.78598C6.84385 9.77455 6.89336 9.77074 6.92764 9.75551C6.98477 9.74408 6.96192 9.74789 6.85147 9.76313C6.88574 9.75932 6.92002 9.75551 6.9543 9.75551C7.01524 9.7517 7.07617 9.75551 7.1333 9.75551H33.5992C33.6183 9.75551 33.6335 9.75932 33.6525 9.75932C33.7211 9.76693 33.7211 9.76693 33.6525 9.75932C33.6373 9.75551 33.6183 9.75551 33.603 9.7517C33.6373 9.75932 33.6678 9.76693 33.7021 9.77455C33.7135 9.77836 33.8468 9.81264 33.8468 9.82026C33.843 9.84311 33.6982 9.74408 33.8011 9.80502C33.843 9.83168 33.8849 9.85453 33.9306 9.87738C34.0753 9.95736 33.8163 9.75932 33.9344 9.87738C33.9534 9.89643 34.1134 10.0412 34.1058 10.0526C34.0905 10.0678 34.0144 9.89643 34.0867 10.0373C34.1058 10.0716 34.1286 10.1097 34.1477 10.144C34.1058 9.98402 34.2314 10.2849 34.1477 10.144C34.1553 10.1745 34.1667 10.2087 34.1781 10.2392C34.1819 10.2544 34.1857 10.2735 34.1896 10.2887C34.2048 10.3725 34.2048 10.3535 34.1857 10.2354C34.1819 10.2354 34.1819 10.3801 34.1819 10.3915C34.1896 10.7914 34.5285 11.1723 34.9437 11.1533C35.3512 11.1342 35.713 10.8181 35.7054 10.3915C35.6863 9.3975 34.9855 8.45678 33.9763 8.27777C33.7935 8.2435 33.6183 8.23207 33.4355 8.23207H7.09903C6.89336 8.23207 6.69151 8.24731 6.49346 8.29301C5.52608 8.5101 4.85576 9.42035 4.84053 10.3954C4.83672 10.6734 4.84053 10.9476 4.84053 11.2256V26.9589C4.84053 27.058 4.83672 27.157 4.84434 27.256C4.92432 28.3338 5.72031 29.1717 6.79434 29.2974C7.02285 29.3241 7.25899 29.3126 7.4875 29.3126H33.1003C33.4355 29.3126 33.7706 29.3279 34.102 29.2403C35.0465 28.9927 35.6901 28.1129 35.7054 27.1494V10.3915C35.7054 9.99164 35.355 9.61078 34.9437 9.62983C34.5323 9.64887 34.1819 9.96498 34.1819 10.3915Z" fill="#C1FD35"/>
<path d="M9.7917 24.0568H12.4311C12.831 24.0568 13.2118 23.7064 13.1928 23.2951C13.1737 22.8837 12.8576 22.5333 12.4311 22.5333H9.7917C9.3918 22.5333 9.01094 22.8837 9.02998 23.2951C9.04903 23.7064 9.36514 24.0568 9.7917 24.0568ZM14.2211 17.7231H10.6715C10.5877 17.7269 10.622 17.7497 10.6639 17.7307C10.7096 17.7078 10.7286 17.7459 10.6639 17.7269C10.6715 17.7269 10.5687 17.704 10.5648 17.6964C10.5648 17.6659 10.7134 17.7802 10.6105 17.7078C10.4925 17.6241 10.641 17.7421 10.6448 17.7421C10.641 17.7459 10.5687 17.6698 10.5725 17.6736C10.4811 17.5936 10.6296 17.7002 10.5991 17.7117C10.5953 17.7117 10.561 17.6507 10.561 17.6469C10.523 17.5631 10.6029 17.8031 10.5687 17.666C10.5687 17.6736 10.542 17.5669 10.5458 17.5669C10.5687 17.5555 10.5534 17.7383 10.5572 17.6126V14.223C10.5572 14.1697 10.561 14.1125 10.5572 14.0592C10.5572 14.0478 10.5648 14.0097 10.5572 14.0021C10.5915 14.044 10.523 14.1544 10.5534 14.0516C10.5496 14.0592 10.5763 13.9526 10.5839 13.9526C10.5801 13.9526 10.5115 14.1316 10.5725 13.9983C10.6258 13.8878 10.5572 14.0592 10.5382 14.0326C10.5344 14.0287 10.6105 13.9564 10.6067 13.9602C10.6905 13.8688 10.5725 13.9945 10.5687 13.9868C10.5725 13.9907 10.6524 13.9297 10.6563 13.9373C10.6753 13.9678 10.4925 13.983 10.6144 13.9564C10.6334 13.9526 10.7058 13.9411 10.7134 13.9335C10.6943 13.9488 10.5306 13.9411 10.6677 13.945H13.9812C14.0535 13.945 14.1297 13.9488 14.2021 13.945C14.2211 13.945 14.2668 13.9526 14.2782 13.945C14.2249 13.9868 14.1297 13.9069 14.2287 13.9411C14.2478 13.9488 14.3125 13.9716 14.3277 13.9716C14.3049 13.9754 14.1716 13.8916 14.282 13.9602C14.3849 14.0249 14.2516 13.9259 14.2478 13.9259C14.2516 13.9221 14.3087 13.9868 14.3201 13.9945C14.4306 14.0935 14.282 13.964 14.2935 13.9564C14.2897 13.9564 14.3506 14.0402 14.343 14.044C14.3315 14.0516 14.2896 13.8535 14.3239 14.0021C14.3277 14.0211 14.3392 14.0897 14.3468 14.1011C14.3392 14.0897 14.343 13.9488 14.3315 14.0287V14.063C14.3277 14.124 14.3315 14.1887 14.3315 14.2496V17.6126C14.3315 17.6317 14.3239 17.6621 14.3315 17.6698C14.3163 17.6545 14.3811 17.4869 14.3354 17.6202C14.3315 17.6355 14.3277 17.6545 14.3201 17.6698C14.2973 17.7345 14.2973 17.7345 14.3201 17.6736C14.3468 17.6621 14.3544 17.6088 14.3125 17.6736C14.2363 17.7993 14.343 17.6393 14.3468 17.6393C14.3506 17.6431 14.2858 17.7002 14.2782 17.7117C14.1982 17.8031 14.3049 17.6545 14.3163 17.685C14.3201 17.6926 14.2249 17.7307 14.2287 17.7345C14.2211 17.7231 14.4153 17.6812 14.2706 17.7155C14.2478 17.7231 14.2211 17.7269 14.1944 17.7345C14.0954 17.7612 14.3963 17.7155 14.2211 17.7231C13.825 17.7345 13.4403 18.0659 13.4594 18.4848C13.4784 18.8885 13.7945 19.2579 14.2211 19.2465C15.1275 19.2199 15.8321 18.5191 15.855 17.6126C15.8588 17.4298 15.855 17.247 15.855 17.0642V14.6914C15.855 14.482 15.8588 14.2725 15.855 14.063C15.8397 13.3051 15.3065 12.5739 14.5296 12.452C14.2782 12.4139 14.0345 12.4177 13.7831 12.4177H12.652C12.0007 12.4177 11.3494 12.4139 10.6981 12.4177C9.98594 12.4253 9.36514 12.8481 9.12139 13.5222C9.02237 13.8002 9.02998 14.0897 9.02998 14.3829V17.5326C9.02998 18.1306 9.29658 18.6905 9.81836 19.0104C10.1573 19.216 10.5268 19.2465 10.9076 19.2465H14.2211C14.621 19.2465 15.0019 18.8961 14.9828 18.4848C14.9638 18.0697 14.6477 17.7231 14.2211 17.7231ZM15.3256 24.0568H17.9649C18.3648 24.0568 18.7457 23.7064 18.7267 23.2951C18.7076 22.8837 18.3915 22.5333 17.9649 22.5333H15.3256C14.9257 22.5333 14.5448 22.8837 14.5639 23.2951C14.5829 23.7064 14.899 24.0568 15.3256 24.0568ZM20.8595 24.0949H23.4988C23.8987 24.0949 24.2796 23.7445 24.2605 23.3331C24.2415 22.9218 23.9254 22.5714 23.4988 22.5714H20.8595C20.4596 22.5714 20.0787 22.9218 20.0978 23.3331C20.1168 23.7445 20.4329 24.0949 20.8595 24.0949ZM26.3934 24.0949H29.0327C29.4326 24.0949 29.8135 23.7445 29.7944 23.3331C29.7754 22.9218 29.4593 22.5714 29.0327 22.5714H26.3934C25.9935 22.5714 25.6126 22.9218 25.6316 23.3331C25.6507 23.7445 25.9668 24.0949 26.3934 24.0949Z" fill="#C1FD35"/>
</svg>