<svg xmlns="http://www.w3.org/2000/svg" width="22" height="24" viewBox="0 0 22 24" fill="none">
<path d="M1.99561 10.5C1.16718 10.5 0.495605 11.1716 0.495605 12C0.495606 12.8284 1.16718 13.5 1.99561 13.5L1.99561 10.5ZM21.0563 13.0607C21.6421 12.4749 21.6421 11.5251 21.0563 10.9393L11.5103 1.3934C10.9245 0.807611 9.97479 0.807611 9.389 1.3934C8.80322 1.97918 8.80322 2.92893 9.389 3.51472L17.8743 12L9.389 20.4853C8.80322 21.0711 8.80322 22.0208 9.389 22.6066C9.97479 23.1924 10.9245 23.1924 11.5103 22.6066L21.0563 13.0607ZM1.99561 13.5L19.9956 13.5L19.9956 10.5L1.99561 10.5L1.99561 13.5Z" fill="#3A393E"/>
</svg>