
<svg xmlns="http://www.w3.org/2000/svg" width="92" height="95" viewBox="0 0 92 95" fill="none">
<g clip-path="url(#clip0_641_1436)">
<path d="M48.898 5.9731C43.2336 5.96241 37.623 7.10718 32.3883 9.34169C27.1536 11.5762 22.3979 14.8564 18.3942 18.994C1.57548 36.3612 1.57548 64.6119 18.4 81.979C35.2187 99.3403 62.5772 99.3403 79.396 81.979C96.209 64.6119 96.209 36.3612 79.396 18.994C75.3946 14.8565 70.641 11.5763 65.4081 9.3417C60.1753 7.10714 54.5664 5.96235 48.9037 5.9731H48.898ZM48.898 11.875C58.4545 11.875 68.011 15.6453 75.325 23.1918C78.8011 26.7734 81.5589 31.0278 83.4406 35.7114C85.3223 40.395 86.2908 45.4159 86.2908 50.4865C86.2908 55.5572 85.3223 60.5781 83.4406 65.2617C81.5589 69.9453 78.8011 74.1997 75.325 77.7812C71.8565 81.3707 67.7365 84.2184 63.2008 86.1615C58.6651 88.1045 53.8028 89.1047 48.8922 89.1047C43.9817 89.1047 39.1194 88.1045 34.5837 86.1615C30.048 84.2184 25.9279 81.3707 22.4595 77.7812C18.9834 74.1997 16.2256 69.9453 14.3439 65.2617C12.4622 60.5781 11.4936 55.5572 11.4936 50.4865C11.4936 45.4159 12.4622 40.395 14.3439 35.7114C16.2256 31.0278 18.9834 26.7734 22.4595 23.1918C25.9269 19.5997 30.0476 16.7507 34.5849 14.8085C39.1221 12.8664 43.9864 11.8694 48.898 11.875ZM65.918 38.6056C65.3735 38.6585 64.8548 38.8706 64.423 39.2172L43.4125 55.4859L33.6777 45.4397C33.4125 45.1561 33.0953 44.93 32.7445 44.7744C32.3938 44.6188 32.0165 44.5369 31.6348 44.5335C31.253 44.53 30.8744 44.6051 30.5211 44.7544C30.1678 44.9037 29.8468 45.1241 29.5768 45.4029C29.3069 45.6816 29.0934 46.0131 28.9489 46.3779C28.8043 46.7428 28.7316 47.1337 28.7349 47.5279C28.7382 47.9221 28.8175 48.3116 28.9682 48.6738C29.1189 49.036 29.3379 49.3636 29.6125 49.6375L41.1125 61.5125C41.6013 62.0174 42.2499 62.3236 42.9395 62.3748C43.6291 62.4261 44.3135 62.219 44.8672 61.7915L67.8672 43.979C68.3546 43.6122 68.7179 43.0965 68.9057 42.5047C69.0936 41.9129 69.0965 41.2752 68.914 40.6816C68.7315 40.0881 68.3729 39.5688 67.8889 39.1973C67.4049 38.8258 66.82 38.6209 66.217 38.6115C66.1193 38.6064 66.0214 38.6064 65.9237 38.6115L65.918 38.6056Z" fill="#201F22"/>
</g>
<defs>
<clipPath id="clip0_641_1436">
<rect width="92" height="95" fill="white"/>
</clipPath>
</defs>
</svg>